# xmcd
#
# Track frame offsets:
#	150
#	16247
#	36212
#	55319
#	79268
#	96959
#	119697
#	138957
#	152257
#
# Disc length: 2250 seconds
#
# Revision: 0
# Processed by: cddbd v1.5.1PL0 Copyright (c) Steve Scherf et al.
# Submitted via: dBpowerAMP V4.0
#
DISCID=6d08c809
DTITLE=Marcelo Watanabe - Nave Louca
DYEAR=2004
DGENRE=Blues
TTITLE0=Destemido ( Nave Louca )
TTITLE1=Corvos Negros
TTITLE2=Jornal
TTITLE3=Noite em Paraty
TTITLE4=Precipício
TTITLE5=Dutra
TTITLE6=Marola
TTITLE7=Mesa - Blues
TTITLE8=Pra Rolar
EXTD=
EXTT0=
EXTT1=
EXTT2=
EXTT3=
EXTT4=
EXTT5=
EXTT6=
EXTT7=
EXTT8=
PLAYORDER=
